<svg width="64px" height="64px" viewBox="0 0 512 512" version="1.1" xml:space="preserve" xmlns="http://www.w3.org/2000/svg" xmlns:xlink="http://www.w3.org/1999/xlink" fill="#000000"><g id="SVGRepo_bgCarrier" stroke-width="0"></g><g id="SVGRepo_tracerCarrier" stroke-linecap="round" stroke-linejoin="round"></g><g id="SVGRepo_iconCarrier"> <style type="text/css"> .st0{display:none;} .st1{display:inline;} .st2{fill:none;stroke:#B3B3B3;stroke-miterlimit:10;} .st3{fill:none;stroke:#0c6eed;stroke-miterlimit:10;} .st4{fill:#ffffff;} .st5{fill:#FFFFFF;stroke:#000000;stroke-width:10;stroke-linecap:round;stroke-linejoin:round;stroke-miterlimit:10;} .st6{fill:#ffffff;} .st7{fill:#ffffff;} .st8{fill:#FFFFFF;} .st9{fill:#ff0800;} .st10{fill:#ff0d00;} .st11{fill:#133260;} .st12{fill:#7782BB;} .st13{fill:#96A5D6;} .st14{fill:#FF5741;} .st15{fill:#43527A;} .st16{fill:#5E7296;} .st17{fill:none;stroke:#133260;stroke-width:9;stroke-linecap:round;stroke-linejoin:round;stroke-miterlimit:10;} .st18{fill:#83D689;} .st19{fill:#B5F4B8;} .st20{fill:#9BC5FF;} .st21{fill:#B8D8FF;} .st22{fill:#F24133;} .st23{fill:#f129ff;} .st24{fill:#7180BC;} .st25{fill:#93A3D8;} .st26{fill:#FF8103;} .st27{fill:#FF9D4D;} .st28{fill:#BC8D66;} .st29{fill:#CEA282;} .st30{fill:#FFDDA1;} .st31{fill:#FFF1DC;} .st32{fill:#7F6674;} .st33{fill:#937A89;} .st34{fill:#04398E;} .st35{fill:#A6D1FF;} .st36{fill:#EAA62D;} .st37{fill:#C5DFFF;} .st38{fill:#D6A47F;} .st39{fill:#99A4D6;} </style> <g class="st0" id="Layer_31"> <g class="st1"> <g> <g> <ellipse class="st2" cx="256" cy="256" rx="248.1" ry="248.3"></ellipse> <path class="st2" d="M398.8,504.5H113.2c-18.8,0-34.1-15.3-34.1-34.1V41.6c0-18.8,15.3-34.1,34.1-34.1h285.5 c18.8,0,34.1,15.3,34.1,34.1v428.9C432.9,489.3,417.6,504.5,398.8,504.5z"></path> <path class="st2" d="M7.9,399.8V112.2c0-16.4,13.3-29.8,29.8-29.8h436.7c16.4,0,29.8,13.3,29.8,29.8v287.6 c0,16.4-13.3,29.8-29.8,29.8H37.6C21.2,429.6,7.9,416.2,7.9,399.8z"></path> <path class="st2" d="M440.4,469.9H71.6c-16.4,0-29.8-13.3-29.8-29.8V71.9c0-16.4,13.3-29.8,29.8-29.8h368.8 c16.4,0,29.8,13.3,29.8,29.8v368.2C470.2,456.5,456.8,469.9,440.4,469.9z"></path> </g> <rect class="st3" height="497" transform="matrix(-1.836970e-16 1 -1 -1.836970e-16 512 5.684342e-14)" width="497" x="7.5" y="7.5"></rect> </g> </g> </g> <g id="Layer_32"> <g> <g> <g> <g> <g> <path class="st14" d="M467.4,387.7H44.6c-22.1,0-40-17.9-40-40V127.6c0-22.1,17.9-40,40-40h422.9c22.1,0,40,17.9,40,40v220.1 C507.4,369.8,489.5,387.7,467.4,387.7z"></path> <path class="st10" d="M29.8,347.7V127.6c0-22.1,17.9-40,40-40H44.6c-22.1,0-40,17.9-40,40v220.1c0,22.1,17.9,40,40,40h25.3 C47.7,387.7,29.8,369.8,29.8,347.7z"></path> <path class="st4" d="M45.1,329.7V145.6c0-9.7,7.8-17.5,17.5-17.5h386.9c9.7,0,17.5,7.8,17.5,17.5v184.1 c0,9.7-7.8,17.5-17.5,17.5H62.6C52.9,347.2,45.1,339.4,45.1,329.7z"></path> <path class="st7" d="M70.3,329.7V145.6c0-9.7,7.8-17.5,17.5-17.5H62.6c-9.7,0-17.5,7.8-17.5,17.5v184.1 c0,9.7,7.8,17.5,17.5,17.5h25.3C78.2,347.2,70.3,339.4,70.3,329.7z"></path> </g> </g> <g> <path class="st11" d="M138.3,186.8c0-2.7,2.4-4,4.8-4h26c17.8,0,32.4,4.6,32.4,27c0,13.3-5.4,22.7-13.5,26.2 c9.7,4,16.4,11.1,16.4,27.3v2.9c0,24.1-13.8,32.7-31.4,32.7h-29.8c-3,0-4.8-1.9-4.8-4V186.8z M148.6,231.4h20.8 c14.6,0,21.6-5.4,21.6-20.5c0-14.6-9.2-18.4-22.2-18.4h-20.2V231.4z M171.6,289.2c13.8,0,22.2-7.1,22.2-23.5V263 c0-16.5-8.4-22.5-22.2-22.5h-23v48.7H171.6z"></path> <path class="st11" d="M279.4,186.7c0-2.7,2.5-3.8,5.2-3.8c2.5,0,5.2,1.1,5.2,3.8v79.2c0,24.8-14.8,34-33.3,34 c-18.7,0-33.3-9.2-33.3-34v-79.2c0-2.7,2.7-3.8,5.2-3.8c2.7,0,5.2,1.1,5.2,3.8v79.2c0,16.5,8.6,24.3,22.9,24.3 c14.3,0,22.9-7.8,22.9-24.3V186.7z"></path> <path class="st11" d="M338.3,254.5c0-0.5,0-0.8-0.2-1.3l-32.9-63c-0.6-1.1-0.8-2.2-0.8-2.9c0-2.7,3.2-4.4,5.7-4.4 c1.7,0,3,1,4.1,3.2l29.2,57.9l29.4-57.9c1.1-2.2,2.5-3.2,4.1-3.2c2.5,0,5.7,1.7,5.7,4.4c0,0.6-0.2,1.7-0.6,2.9l-33,63 c-0.2,0.5-0.3,0.8-0.3,1.3v40.3c0,2.7-2.5,4.1-5.2,4.1c-2.5,0-5.2-1.4-5.2-4.1V254.5z"></path> </g> </g> <path class="st15" d="M501.5,301.8l-75.3-38.2c-5.8-3-12.9,0.1-14.8,6.4l-23.8,81c-2.5,8.5,6.1,16.1,14.2,12.6l28.1-12.1 l28.4,65.7c2.7,6.1,9.8,9,15.9,6.3l20.7-8.9c6.1-2.7,9-9.8,6.3-15.9l-28.4-65.7l28.1-12.1C509.1,317.2,509.4,305.8,501.5,301.8z"></path> <g> <path class="st16" d="M439.3,270.2l-13.1-6.6c-5.8-3-12.9,0.1-14.8,6.4l-23.8,81c-2.5,8.5,6.1,16.1,14.2,12.6l11.5-5 L439.3,270.2z"></path> <path class="st16" d="M437.4,348l-7.4,3.4l28.4,65.7c2.7,6.1,9.8,9,15.9,6.3l8.5-3.7l-30.9-66.5 C449.3,347.8,442.8,345.5,437.4,348z"></path> </g> </g> <path class="st11" d="M512,347.7V127.6C512,103,492,83,467.4,83H44.6C20,83,0,103,0,127.6v220.1c0,24.6,20,44.6,44.6,44.6h398.1 l11.5,26.6c1.8,4.1,5,7.2,9.2,8.9c2,0.8,4.1,1.2,6.1,1.2c2.2,0,4.5-0.5,6.6-1.4l20.7-8.9c4.1-1.8,7.2-5,8.9-9.2 c1.6-4.1,1.6-8.7-0.2-12.8l-7.2-16.8C507,371.6,512,360,512,347.7z M44.6,383.2c-19.5,0-35.4-15.9-35.4-35.4V127.6 C9.1,108,25,92.1,44.6,92.1h422.9c19.5,0,35.4,15.9,35.4,35.4v169.8l-31.4-15.9V145.6c0-12.2-9.9-22.1-22.1-22.1H62.6 c-12.2,0-22.1,9.9-22.1,22.1v184.1c0,12.2,9.9,22.1,22.1,22.1h320.2c-0.7,5,1,10,4.9,13.4c4.4,3.9,10.5,4.9,15.9,2.5l23.9-10.3 l11.1,25.7H44.6z M462.4,145.6v131.2l-34.1-17.3c-4-2-8.7-2.2-12.8-0.4c-4.1,1.8-7.2,5.3-8.5,9.6l-21.7,74H62.6 c-7.1,0-13-5.8-13-13V145.6c0-7.1,5.8-13,13-13h386.9C456.6,132.6,462.4,138.5,462.4,145.6z M497.1,406.1c-0.7,1.9-2.2,3.4-4,4.2 l-20.7,8.9c-1.9,0.8-3.9,0.8-5.8,0.1c-1.9-0.7-3.4-2.2-4.2-4l-12.7-29.3c0,0,0,0,0,0l-15.7-36.3c-0.5-1.1-1.4-2-2.5-2.4 c-0.5-0.2-1.1-0.3-1.7-0.3c-0.6,0-1.2,0.1-1.8,0.4l-28.1,12.1c-2.2,0.9-4.5,0.6-6.3-1c-1.8-1.6-2.4-3.8-1.8-6.1l1.1-3.7 c0,0,0-0.1,0-0.1l22.6-77.2c0.5-1.7,1.7-3.1,3.3-3.8c1.6-0.7,3.5-0.6,5,0.2l40.7,20.6c0,0,0.1,0,0.1,0.1l34.5,17.5 c2.1,1.1,3.3,3.1,3.2,5.5c-0.1,2.4-1.4,4.3-3.6,5.3L471,328.7c-1.1,0.5-2,1.4-2.4,2.5c-0.4,1.1-0.4,2.4,0.1,3.5l19.8,45.8 c0,0,0,0.1,0,0.1l8.5,19.7C497.9,402.2,497.9,404.3,497.1,406.1z M494.3,370.9l-15.4-35.7l23.9-10.3c0.1,0,0.1,0,0.2-0.1v22.9 C502.9,356.3,499.8,364.5,494.3,370.9z"></path> </g> </g> </g></svg>
